<svg xmlns="http://www.w3.org/2000/svg" viewBox="25 25 150.001 150" width="100" height="100"><path fill="#cfd8dc" d="M175 175H25V29.167c0-2.5 1.667-4.167 4.167-4.167h141.667c2.5 0 4.167 1.667 4.167 4.167z"/><path fill="#263238" d="M33.333 54.167h133.333v112.5H33.333z"/><path fill="#76ff03" d="m64.583 110 14.583 8.75v10.417l-25-15.417V105l25-13.333v10.417zm31.25 27.5H87.5l16.667-58.333h8.333zm39.583-27.083-14.583-8.333V91.667l25 14.167v8.75l-25 14.583V118.75z"/><path fill="#90a4ae" d="M56.25 33.333a6.25 6.25 0 1 0 0 12.5 6.25 6.25 0 1 0 0-12.5m-16.667 0a6.25 6.25 0 1 0 0 12.5 6.25 6.25 0 1 0 0-12.5"/></svg>