<svg viewBox="0 0 100 100" xmlns="http://www.w3.org/2000/svg" fill="none" width="100" height="100"><g stroke-width="0"/><g stroke-linecap="round" stroke-linejoin="round"/><path fill="#fff" fill-rule="evenodd" d="M8.333 25a12.5 12.5 0 0 1 12.5-12.5h58.333a12.5 12.5 0 0 1 12.5 12.5v50a12.5 12.5 0 0 1-12.5 12.5H20.833A12.5 12.5 0 0 1 8.333 75zm20.833 4.167a4.167 4.167 0 0 0 0 8.333h20.833a4.167 4.167 0 1 0 0-8.333zm33.333 0a4.167 4.167 0 1 0 0 8.333h8.333a4.167 4.167 0 1 0 0-8.333zM29.166 45.834a4.167 4.167 0 1 0 0 8.333h4.167a4.167 4.167 0 1 0 0-8.333zm16.667 0a4.167 4.167 0 1 0 0 8.333h25a4.167 4.167 0 1 0 0-8.333zM29.166 62.501a4.167 4.167 0 1 0 0 8.333h20.833a4.167 4.167 0 1 0 0-8.333zm33.333 0a4.167 4.167 0 1 0 0 8.333h8.333a4.167 4.167 0 1 0 0-8.333z" clip-rule="evenodd"/></svg>